<svg width="24" height="24" viewBox="0 0 24 24" fill="none" xmlns="http://www.w3.org/2000/svg">
<foreignObject x="-6" y="-6" width="36" height="36"><div xmlns="http://www.w3.org/1999/xhtml" style="backdrop-filter:blur(3px);clip-path:url(#bgblur_0_1270_3592_clip_path);height:100%;width:100%"></div></foreignObject><g data-figma-bg-blur-radius="6">
<rect width="24" height="24" rx="7" fill="url(#paint0_linear_1270_3592)"/>
<rect x="0.5" y="0.5" width="23" height="23" rx="6.5" stroke="white" stroke-opacity="0.04"/>
<path fill-rule="evenodd" clip-rule="evenodd" d="M18.2256 6.64068C18.5315 6.87079 18.5906 7.30217 18.3575 7.60419L10.9289 17.2292C10.8072 17.387 10.6222 17.4851 10.4217 17.4984C10.2212 17.5118 10.0246 17.4389 9.88254 17.2986L5.70398 13.1736C5.43201 12.9052 5.43201 12.4699 5.70398 12.2014C5.97595 11.9329 6.4169 11.9329 6.68887 12.2014L10.304 15.7701L17.2496 6.77088C17.4827 6.46886 17.9197 6.41057 18.2256 6.64068Z" fill="#0DB7FF"/>
</g>
<defs>
<clipPath id="bgblur_0_1270_3592_clip_path" transform="translate(6 6)"><rect width="24" height="24" rx="7"/>
</clipPath><linearGradient id="paint0_linear_1270_3592" x1="12" y1="0" x2="12" y2="24" gradientUnits="userSpaceOnUse">
<stop stop-color="#0F0F0F" stop-opacity="0.75"/>
<stop offset="1" stop-color="#0F0F0F" stop-opacity="0.9"/>
</linearGradient>
</defs>
</svg>
