<svg width="24" height="24" viewBox="0 0 24 24" fill="none" xmlns="http://www.w3.org/2000/svg">
<path fill-rule="evenodd" clip-rule="evenodd" d="M11.078 2.25C10.1614 2.25 9.37921 2.91265 9.22853 3.81675L9.04987 4.88873C9.02971 5.00964 8.93554 5.1498 8.75323 5.23747C8.40917 5.40292 8.07979 5.5938 7.76752 5.8076C7.60103 5.92159 7.43271 5.9332 7.31781 5.89015L6.29863 5.50833C5.44031 5.18678 4.47533 5.53289 4.01704 6.32666L3.09506 7.92358C2.63677 8.71736 2.81953 9.72611 3.52716 10.3087L4.36768 11.0006C4.46231 11.0785 4.53642 11.2298 4.52132 11.4307C4.50718 11.6188 4.5 11.8086 4.5 12C4.5 12.1915 4.50719 12.3814 4.52133 12.5695C4.53644 12.7704 4.46233 12.9217 4.3677 12.9996L3.52716 13.6916C2.81952 14.2741 2.63677 15.2829 3.09506 16.0767L4.01704 17.6736C4.47532 18.4674 5.44031 18.8135 6.29863 18.4919L7.31804 18.11C7.43293 18.067 7.60125 18.0786 7.76773 18.1925C8.07994 18.4063 8.40925 18.5971 8.75323 18.7625C8.93554 18.8502 9.02971 18.9904 9.04987 19.1113L9.22853 20.1832C9.37921 21.0874 10.1614 21.75 11.078 21.75H12.922C13.8386 21.75 14.6208 21.0874 14.7715 20.1832L14.9501 19.1113C14.9703 18.9904 15.0645 18.8502 15.2468 18.7625C15.5908 18.5971 15.9202 18.4062 16.2325 18.1924C16.399 18.0784 16.5673 18.0668 16.6822 18.1098L17.7014 18.4917C18.5597 18.8132 19.5247 18.4671 19.983 17.6733L20.9049 16.0764C21.3632 15.2826 21.1805 14.2739 20.4728 13.6913L19.6323 12.9994C19.5377 12.9215 19.4636 12.7702 19.4787 12.5693C19.4928 12.3812 19.5 12.1914 19.5 12C19.5 11.8085 19.4928 11.6186 19.4787 11.4305C19.4636 11.2296 19.5377 11.0783 19.6323 11.0004L20.4728 10.3084C21.1805 9.72587 21.3632 8.71711 20.9049 7.92334L19.983 6.32642C19.5247 5.53264 18.5597 5.18654 17.7014 5.50809L16.682 5.89C16.5671 5.93304 16.3987 5.92144 16.2323 5.80746C15.9201 5.59371 15.5907 5.40289 15.2468 5.23747C15.0645 5.1498 14.9703 5.00964 14.9501 4.88873L14.7715 3.81675C14.6208 2.91265 13.8386 2.25 12.922 2.25H11.078ZM12.0001 15.75C14.0712 15.75 15.7501 14.0711 15.7501 12C15.7501 9.92893 14.0712 8.25 12.0001 8.25C9.92905 8.25 8.25012 9.92893 8.25012 12C8.25012 14.0711 9.92905 15.75 12.0001 15.75Z" fill="#DEDEDE"/>
</svg>
